<?xml version="1.0" standalone="no"?>
<!DOCTYPE svg PUBLIC "-//W3C//DTD SVG 20010904//EN"
 "http://www.w3.org/TR/2001/REC-SVG-20010904/DTD/svg10.dtd">
<svg version="1.0" xmlns="http://www.w3.org/2000/svg"
 width="1250.000000pt" height="1250.000000pt" viewBox="0 0 1250.000000 1250.000000"
 preserveAspectRatio="xMidYMid meet">
<metadata>
Created by potrace 1.14, written by Peter Selinger 2001-2017
</metadata>
<g transform="translate(0.000000,1250.000000) scale(0.100000,-0.100000)"
fill="#000000" stroke="none">
<path d="M335 9259 c187 -189 660 -666 1050 -1059 391 -393 881 -887 1089
-1096 273 -275 376 -386 370 -395 -4 -8 -215 -290 -469 -627 -765 -1019 -1253
-1671 -1489 -1987 -123 -165 -373 -500 -555 -744 -182 -245 -329 -446 -327
-448 2 -2 637 338 1411 756 l1408 760 859 1146 c472 630 858 1149 858 1153 0
13 -1762 1787 -1790 1802 -8 4 -319 127 -690 273 -371 146 -979 386 -1350 532
-371 147 -684 269 -695 272 -11 3 133 -149 320 -338z"/>
<path d="M3716 9228 c203 -205 446 -451 539 -545 93 -95 178 -176 189 -179 12
-4 415 -162 896 -352 481 -190 886 -347 900 -349 15 -2 120 34 275 95 138 55
533 211 880 347 l630 248 557 550 c307 303 556 552 554 555 -3 2 -278 -104
-613 -236 -1309 -517 -2265 -892 -2274 -892 -9 0 -462 177 -2167 849 -392 155
-718 281 -725 281 -6 0 155 -168 359 -372z"/>
<path d="M11088 9047 l-1397 -552 -895 -884 c-493 -486 -896 -887 -896 -891 0
-10 -8 0 958 -1263 641 -838 789 -1027 820 -1041 32 -16 614 -329 2316 -1248
274 -148 500 -267 502 -265 2 2 -422 575 -941 1273 -872 1170 -1010 1348
-1091 1405 -20 14 -860 1106 -869 1131 -6 14 -1 19 1135 1138 399 393 885 872
1080 1065 195 193 432 426 525 518 94 92 166 167 160 166 -5 0 -639 -249
-1407 -552z"/>
<path d="M5370 4901 l-865 -468 -573 -763 c-314 -420 -571 -765 -569 -767 2
-1 649 346 1438 772 882 477 1442 774 1454 772 11 -2 663 -351 1449 -776 785
-424 1430 -770 1432 -768 2 2 -255 343 -572 758 -317 415 -582 762 -589 772
-7 10 -167 101 -356 203 -189 102 -572 309 -851 460 -279 151 -513 274 -520
274 -7 -1 -402 -212 -878 -469z"/>
</g>
</svg>
